<?xml version="1.0" standalone="no"?>
<!DOCTYPE svg PUBLIC "-//W3C//DTD SVG 20010904//EN"
 "http://www.w3.org/TR/2001/REC-SVG-20010904/DTD/svg10.dtd">
<svg version="1.0" xmlns="http://www.w3.org/2000/svg"
    viewBox="0 0 900.000000 258.000000"
 preserveAspectRatio="xMidYMid meet">
<metadata>
Created by potrace 1.10, written by Peter Selinger 2001-2011
</metadata>
<g transform="translate(0.000000,258.000000) scale(0.100000,-0.100000)"
fill="#742626" stroke="none">
<path d="M57 2513 c-4 -3 -7 -33 -7 -65 l0 -58 323 0 c177 0 328 -4 335 -9 9
-5 12 -28 10 -77 l-3 -69 -310 -5 -310 -5 -3 -62 c-2 -35 -2 -64 0 -65 2 -1
142 -5 313 -8 l310 -5 3 -86 c2 -63 -1 -89 -11 -97 -9 -8 -108 -13 -313 -14
l-299 -3 -5 -518 c-3 -284 -4 -522 -2 -527 2 -6 114 -10 306 -10 222 0 305 -3
314 -12 12 -12 17 -143 6 -172 -5 -14 -42 -16 -304 -16 -243 0 -301 -3 -313
-14 -14 -14 -15 -94 -2 -116 4 -6 111 -10 304 -10 218 0 300 -3 309 -12 16
-16 16 -110 0 -126 -9 -9 -96 -12 -330 -12 -361 0 -342 5 -336 -88 l3 -47 407
-3 408 -2 0 404 c0 359 2 405 16 410 30 11 209 7 222 -6 9 -9 12 -102 12 -359
0 -307 2 -348 16 -353 28 -11 150 -6 162 6 9 9 12 102 12 359 0 307 2 348 16
353 9 3 60 6 114 6 71 0 101 -4 109 -14 8 -10 11 -121 11 -397 0 -211 -1 -390
0 -396 0 -10 88 -13 405 -13 l406 0 -3 68 -3 67 -330 5 -330 5 -3 58 c-2 35 2
64 9 73 9 11 64 14 305 14 210 0 295 3 300 11 9 16 15 80 8 102 -5 16 -28 17
-303 17 -252 0 -300 2 -311 15 -13 15 -17 165 -5 185 4 6 109 10 305 10 181 0
301 4 305 10 7 12 7 1028 0 1041 -4 5 -134 9 -305 9 -286 0 -300 1 -310 19
-14 27 -13 154 2 169 9 9 90 12 302 12 160 0 297 4 304 9 9 5 12 26 10 67 l-3
59 -299 3 c-201 1 -304 6 -313 13 -16 14 -18 102 -3 130 10 18 25 19 341 19
l330 0 -3 63 -3 62 -400 0 -400 0 -5 -402 c-3 -221 -8 -404 -12 -408 -9 -10
-221 -6 -230 3 -4 4 -9 165 -10 357 l-3 350 -90 0 -90 0 -5 -355 -5 -355 -120
0 -120 0 -3 394 c-1 271 -6 398 -13 408 -9 10 -87 13 -399 13 -212 0 -390 -3
-393 -7z m318 -1153 l0 -385 -70 0 -70 0 -3 374 c-2 274 1 377 9 388 9 10 30
13 73 11 l61 -3 0 -385z m340 368 c3 -13 4 -187 3 -388 l-3 -365 -84 -3 c-46
-2 -88 1 -92 5 -14 14 -23 727 -10 752 11 19 20 21 96 21 79 0 85 -1 90 -22z
m1165 3 c11 -21 15 -717 4 -745 -5 -13 -23 -16 -94 -16 -59 0 -91 4 -98 13
-15 17 -17 720 -2 747 9 18 21 20 95 20 73 0 86 -3 95 -19z m298 -369 c2 -301
0 -383 -10 -387 -40 -12 -120 -11 -134 2 -12 12 -14 75 -14 371 0 196 3 367 6
380 6 21 11 23 78 20 l71 -3 3 -383z m-630 146 c2 -20 -2 -46 -8 -58 -11 -20
-17 -20 -343 -18 l-332 3 -3 44 c-6 77 -31 72 345 69 l338 -3 3 -37z m-24
-228 c22 -8 26 -15 26 -52 0 -24 -4 -49 -8 -56 -7 -9 -82 -12 -343 -10 l-334
3 -3 57 -3 57 103 3 c285 8 538 8 562 -2z"/>
<path d="M5511 2118 c-35 -5 -79 -15 -97 -23 l-34 -14 0 -918 c0 -702 3 -922
12 -931 8 -8 46 -12 104 -12 75 0 93 3 98 16 3 9 6 146 6 305 0 338 -5 328
107 230 133 -115 282 -279 375 -413 21 -29 51 -72 68 -95 l30 -43 110 0 c85 0
112 3 116 14 6 17 -105 182 -222 331 -48 61 -145 168 -216 238 -71 71 -128
132 -126 137 2 4 73 80 158 167 211 217 350 368 350 382 0 7 -36 11 -113 11
l-113 0 -60 -67 c-105 -120 -437 -453 -450 -453 -12 0 -14 96 -14 559 0 308
-3 566 -6 575 -3 9 -9 15 -13 15 -3 -1 -35 -6 -70 -11z"/>
<path d="M7005 2011 c-27 -10 -64 -25 -81 -34 -49 -25 -109 -101 -134 -167
-19 -51 -22 -73 -18 -148 6 -106 41 -183 112 -252 25 -25 46 -49 46 -55 0 -5
-28 -30 -61 -55 -162 -120 -249 -278 -249 -454 0 -208 110 -390 284 -468 50
-23 194 -58 238 -58 19 0 68 9 108 19 88 23 90 22 134 -66 31 -62 119 -186
154 -216 15 -14 25 -16 39 -8 21 11 113 110 113 122 0 4 -29 36 -63 71 -64 63
-127 158 -127 190 0 9 18 37 39 62 122 141 131 317 19 399 -32 24 -110 27
-149 7 -76 -39 -121 -142 -124 -284 -2 -70 -7 -101 -16 -107 -8 -5 -68 -9
-134 -9 -113 0 -123 2 -177 29 -69 35 -101 68 -135 141 -22 47 -27 69 -27 150
-1 79 3 104 23 150 38 88 76 137 180 230 49 45 95 61 117 41 16 -15 116 -39
209 -50 68 -7 117 -7 200 4 123 15 195 29 222 44 41 22 86 31 99 20 12 -9 14
-105 14 -519 0 -454 2 -509 16 -514 28 -11 140 -6 152 6 9 9 12 203 12 810 0
778 0 798 19 808 30 15 423 13 444 -2 16 -12 17 -75 20 -818 l2 -805 80 0 80
0 3 808 2 808 26 9 c14 6 72 10 130 10 l105 0 -3 83 -3 82 -540 0 -540 0 -5
-275 c-3 -151 -7 -276 -8 -277 -8 -10 -101 -51 -167 -75 -71 -26 -97 -30 -232
-35 -200 -7 -207 -3 -124 81 85 86 106 137 105 251 -2 112 -25 168 -101 242
-86 85 -217 114 -328 74z m172 -168 c55 -26 86 -82 86 -152 -1 -77 -23 -121
-91 -181 -61 -55 -77 -59 -121 -32 -82 50 -121 143 -106 251 14 105 131 162
232 114z"/>
<path d="M2527 1943 c-4 -3 -7 -390 -7 -859 l0 -854 23 -5 c12 -3 60 -5 107
-3 l85 3 5 397 c3 218 8 400 12 404 5 4 20 2 34 -5 25 -11 134 -90 162 -118 7
-7 17 -13 21 -13 12 0 340 -325 405 -401 59 -70 75 -91 152 -201 l47 -68 123
0 c80 0 124 4 124 10 0 17 -96 159 -165 245 -174 217 -386 435 -555 570 -47
37 -89 75 -94 83 -6 10 30 53 140 166 390 397 604 625 604 645 0 7 -37 11
-119 11 l-119 0 -59 -62 c-32 -35 -90 -97 -129 -138 -234 -252 -542 -560 -559
-560 -7 0 -16 7 -19 16 -3 9 -6 180 -6 380 l0 364 -103 0 c-57 0 -107 -3 -110
-7z"/>
<path d="M4315 1528 c-176 -32 -185 -36 -185 -91 0 -63 11 -115 25 -120 6 -3
38 1 71 9 85 21 337 21 385 0 99 -42 149 -124 149 -241 0 -54 -4 -77 -13 -81
-8 -3 -43 0 -78 7 -143 27 -247 22 -389 -19 -107 -30 -176 -76 -234 -156 -38
-53 -48 -92 -53 -207 -5 -113 11 -181 59 -254 56 -85 127 -125 278 -157 99
-21 206 -21 405 2 44 4 112 12 150 16 39 4 73 12 77 18 4 6 8 214 8 461 0 410
-2 456 -19 515 -26 94 -52 139 -110 193 -59 55 -114 81 -215 102 -77 16 -231
18 -311 3z m402 -708 c15 -6 33 -17 38 -24 6 -8 9 -84 7 -194 -3 -176 -4 -182
-25 -194 -26 -14 -280 -18 -347 -5 -117 21 -178 81 -187 185 -7 74 8 119 52
165 59 60 117 76 287 76 81 1 159 -4 175 -9z"/>
</g>
</svg>
