<?xml version="1.0" standalone="no"?>
<!DOCTYPE svg PUBLIC "-//W3C//DTD SVG 20010904//EN"
 "http://www.w3.org/TR/2001/REC-SVG-20010904/DTD/svg10.dtd">
<svg version="1.0" xmlns="http://www.w3.org/2000/svg"
    viewBox="0 0 180.000000 258.000000"
 preserveAspectRatio="xMidYMid meet">
<metadata>
Created by potrace 1.10, written by Peter Selinger 2001-2011
</metadata>
<g transform="translate(0.000000,258.000000) scale(0.100000,-0.100000)"
fill="#742626" stroke="none">
<path d="M57 2513 c-4 -3 -7 -33 -7 -65 l0 -58 323 0 c177 0 328 -4 335 -9 9
-5 12 -28 10 -77 l-3 -69 -310 -5 -310 -5 -3 -62 c-2 -35 -2 -64 0 -65 2 -1
142 -5 313 -8 l310 -5 3 -86 c2 -63 -1 -89 -11 -97 -9 -8 -108 -13 -313 -14
l-299 -3 -5 -518 c-3 -284 -4 -522 -2 -527 2 -6 114 -10 306 -10 222 0 305 -3
314 -12 12 -12 17 -143 6 -172 -5 -14 -42 -16 -304 -16 -243 0 -301 -3 -313
-14 -14 -14 -15 -94 -2 -116 4 -6 111 -10 304 -10 218 0 300 -3 309 -12 16
-16 16 -110 0 -126 -9 -9 -96 -12 -330 -12 -361 0 -342 5 -336 -88 l3 -47 407
-3 408 -2 0 404 c0 359 2 405 16 410 30 11 209 7 222 -6 9 -9 12 -102 12 -359
0 -307 2 -348 16 -353 28 -11 150 -6 162 6 9 9 12 102 12 359 0 307 2 348 16
353 9 3 60 6 114 6 71 0 101 -4 109 -14 8 -10 11 -121 11 -397 0 -211 -1 -390
0 -396 0 -10 88 -13 405 -13 l406 0 -3 68 -3 67 -330 5 -330 5 -3 58 c-2 35 2
64 9 73 9 11 64 14 305 14 210 0 295 3 300 11 9 16 15 80 8 102 -5 16 -28 17
-303 17 -252 0 -300 2 -311 15 -13 15 -17 165 -5 185 4 6 109 10 305 10 181 0
301 4 305 10 7 12 7 1028 0 1041 -4 5 -134 9 -305 9 -286 0 -300 1 -310 19
-14 27 -13 154 2 169 9 9 90 12 302 12 160 0 297 4 304 9 9 5 12 26 10 67 l-3
59 -299 3 c-201 1 -304 6 -313 13 -16 14 -18 102 -3 130 10 18 25 19 341 19
l330 0 -3 63 -3 62 -400 0 -400 0 -5 -402 c-3 -221 -8 -404 -12 -408 -9 -10
-221 -6 -230 3 -4 4 -9 165 -10 357 l-3 350 -90 0 -90 0 -5 -355 -5 -355 -120
0 -120 0 -3 394 c-1 271 -6 398 -13 408 -9 10 -87 13 -399 13 -212 0 -390 -3
-393 -7z m318 -1153 l0 -385 -70 0 -70 0 -3 374 c-2 274 1 377 9 388 9 10 30
13 73 11 l61 -3 0 -385z m340 368 c3 -13 4 -187 3 -388 l-3 -365 -84 -3 c-46
-2 -88 1 -92 5 -14 14 -23 727 -10 752 11 19 20 21 96 21 79 0 85 -1 90 -22z
m1165 3 c11 -21 15 -717 4 -745 -5 -13 -23 -16 -94 -16 -59 0 -91 4 -98 13
-15 17 -17 720 -2 747 9 18 21 20 95 20 73 0 86 -3 95 -19z m298 -369 c2 -301
0 -383 -10 -387 -40 -12 -120 -11 -134 2 -12 12 -14 75 -14 371 0 196 3 367 6
380 6 21 11 23 78 20 l71 -3 3 -383z m-630 146 c2 -20 -2 -46 -8 -58 -11 -20
-17 -20 -343 -18 l-332 3 -3 44 c-6 77 -31 72 345 69 l338 -3 3 -37z m-24
-228 c22 -8 26 -15 26 -52 0 -24 -4 -49 -8 -56 -7 -9 -82 -12 -343 -10 l-334
3 -3 57 -3 57 103 3 c285 8 538 8 562 -2z"/>
</g>
</svg>